#!OML:ASF H:\GeneralSubjects\Female5\Project 1\Capture day 1\Session 1\Female5.ASF
:FULLY-SPECIFIED
:DEGREES
474
root 6.45379 15.7318 -2.91516 -16.9722 -78.5534 3.01114
lowerback 18.2752 -1.81056 10.3767
upperback -5.21281 0.382014 1.96658
thorax -16.4529 -0.763655 -3.71695
lowerneck -12.0244 -4.82245 -8.71345
upperneck 37.9287 -4.6855 -4.88154
head 15.5419 -4.50043 -1.4921
rclavicle 1.78906e-014 1.59028e-014
rhumerus -28.1463 -1.17199 -28.6811
rradius 70.0478
rwrist 8.98181
rhand -34.4702 -2.31802
rfingers 7.12502
rthumb -7.63341 -32.1603
lclavicle 1.78906e-014 1.59028e-014
lhumerus -32.9758 2.83929 55.537
lradius 46.4279
lwrist -6.55614
lhand -23.8326 26.1064
lfingers 7.12502
lthumb 2.63905 -303.93
rfemur 12.2994 9.56821 36.4139
rtibia 14.2567
rfoot -26.7636 -23.5252
rtoes -2.06703
lfemur -75.4991 5.50198 -21.5153
ltibia 43.5567
lfoot -25.3365 16.9582
ltoes -48.7701
475
root 6.47071 15.7386 -2.91428 -14.7489 -78.2424 1.18159
lowerback 18.0418 -1.87832 10.2158
upperback -5.22137 0.223455 1.99557
thorax -16.3379 -0.811174 -3.54331
lowerneck -12.4276 -4.80825 -8.41079
upperneck 38.0421 -4.67789 -4.89369
head 15.6766 -4.45286 -1.5683
rclavicle 1.55052e-014 6.36111e-015
rhumerus -27.3468 -1.21165 -28.2742
rradius 70.4112
rwrist 8.48455
rhand -34.4361 -1.94019
rfingers 7.12502
rthumb -7.60052 -31.7836
lclavicle 1.55052e-014 6.36111e-015
lhumerus -33.3902 3.88924 55.8274
lradius 45.8732
lwrist -9.30484
lhand -26.2597 26.0792
lfingers 7.12502
lthumb 0.294934 -303.941
rfemur 12.0309 9.54406 36.6669
rtibia 13.7649
rfoot -26.5324 -23.6958
rtoes -1.67747
lfemur -74.3184 4.17152 -19.7723
ltibia 38.2309
lfoot -27.0551 14.0499
ltoes -49.9933
476
root 6.49173 15.7433 -2.91431 -12.2944 -78.0236 -1.00118
lowerback 18.0014 -1.91155 10.0682
upperback -5.23425 0.150731 2.09384
thorax -16.3361 -0.822417 -3.32272
lowerneck -12.2548 -4.84952 -8.193
upperneck 37.7051 -4.81769 -4.85022
head 15.4562 -4.45592 -1.57892
rclavicle 1.15295e-014 -3.18055e-015
rhumerus -26.5722 -1.16558 -27.7855
rradius 70.7826
rwrist 8.25067
rhand -34.3054 -1.77082
rfingers 7.12502
rthumb -7.47437 -31.6188
lclavicle 1.15295e-014 -3.18055e-015
lhumerus -33.9519 4.87351 56.0701
lradius 45.3459
lwrist -11.8177
lhand -28.2601 25.9611
lfingers 7.12502
lthumb -1.63713 -304.065
rfemur 11.7877 9.5742 37.0544
rtibia 13.3782
rfoot -26.4292 -23.7264
rtoes -1.25202
lfemur -73.0613 2.6816 -17.3076
ltibia 33.0165
lfoot -30.555 7.67713
ltoes -45.5653
477
root 6.50975 15.7466 -2.90962 -10.0352 -77.7992 -3.02952
lowerback 17.9931 -1.9328 9.91785
upperback -5.27074 0.101558 2.2081
thorax -16.3798 -0.824426 -3.08859
lowerneck -12.2216 -4.90134 -8.45354
upperneck 37.6524 -4.95124 -4.49189
head 15.4476 -4.49356 -1.40105
rclavicle 6.75868e-015 -4.6118e-014
rhumerus -25.9023 -0.99895 -27.2923
rradius 71.2561
rwrist 8.34578
rhand -34.1575 -1.65561
rfingers 7.12502
rthumb -7.33162 -31.5086
lclavicle 6.75868e-015 -4.6118e-014
lhumerus -34.7877 5.89603 56.2021
lradius 45.0359
lwrist -13.897
lhand -29.8445 25.7125
lfingers 7.12502
lthumb -3.16732 -304.331
rfemur 11.6094 9.51319 37.3782
rtibia 12.9444
rfoot -26.2256 -23.7667
rtoes -1.50557
lfemur -72.0071 0.942953 -14.4597
ltibia 28.5003
lfoot -32.6277 7.26948
ltoes -50.1229
478
root 6.52315 15.7475 -2.90109 -7.87153 -77.5062 -4.97089
lowerback 17.9437 -1.97228 9.81483
upperback -5.31843 0.0337628 2.3172
thorax -16.4151 -0.839856 -2.88105
lowerneck -12.1566 -4.89632 -8.43439
upperneck 37.6782 -5.01519 -4.33707
head 15.4483 -4.49651 -1.34764
rclavicle -7.15625e-015 3.18055e-015
rhumerus -25.2515 -0.897216 -26.8855
rradius 71.8086
rwrist 8.49113
rhand -34.0747 -1.33777
rfingers 7.12502
rthumb -7.25165 -31.1935
lclavicle -7.15625e-015 3.18055e-015
lhumerus -35.7756 6.70097 56.329
lradius 44.871
lwrist -15.3637
lhand -31.4077 25.763
lfingers 7.12502
lthumb -4.67679 -304.309
rfemur 11.447 9.39096 37.6726
rtibia 12.5306
rfoot -25.947 -24.1004
rtoes -1.98738
lfemur -71.5155 -0.442269 -12.7126
ltibia 24.9812
lfoot -32.7271 6.72197
ltoes -54.881
479
root 6.53231 15.7452 -2.88933 -5.96374 -77.2541 -6.66228
lowerback 17.8395 -1.99905 9.71948
upperback -5.35923 -0.0247235 2.41191
thorax -16.4059 -0.850986 -2.69875
lowerneck -12.13 -4.84186 -8.32107
upperneck 37.7298 -4.98334 -4.29615
head 15.4609 -4.4631 -1.3451
rclavicle -8.34896e-015 -4.77083e-015
rhumerus -24.4169 -1.00387 -26.579
rradius 72.2474
rwrist 8.81463
rhand -34.055 -1.08535
rfingers 7.12502
rthumb -7.23261 -30.9418
lclavicle -8.34896e-015 -4.77083e-015
lhumerus -36.834 7.00212 56.5171
lradius 44.7095
lwrist -16.3808
lhand -33.0617 26.9849
lfingers 7.12502
lthumb -6.27379 -303.128
rfemur 11.2482 9.27377 37.9185
rtibia 12.2612
rfoot -25.756 -24.3869
rtoes -1.8718
lfemur -71.2823 -1.45249 -11.4532
ltibia 22.5059
lfoot -31.231 6.68032
ltoes -58.806
480
root 6.5381 15.7396 -2.87418 -4.65299 -77.2491 -7.72531
lowerback 17.7052 -1.8871 9.43026
upperback -5.38269 0.0550482 2.52827
thorax -16.3327 -0.776372 -2.4289
lowerneck -12.0829 -4.88616 -8.31896
upperneck 37.7569 -5.06105 -4.29127
head 15.4648 -4.49549 -1.35589
rclavicle -1.39149e-014 2.38542e-014
rhumerus -23.5127 -1.14347 -26.186
rradius 72.6064
rwrist 9.06635
rhand -33.7964 -0.795178
rfingers 7.12502
rthumb -6.98306 -30.66
lclavicle -1.39149e-014 2.38542e-014
lhumerus -37.9743 7.01384 56.7233
lradius 44.651
lwrist -17.539
lhand -33.4541 27.4319
lfingers 7.12502
lthumb -6.65263 -302.693
rfemur 10.9264 9.19439 38.0043
rtibia 12.2189
rfoot -25.4725 -24.4104
rtoes -1.67229
lfemur -71.3202 -1.70116 -11.4808
ltibia 21.0354
lfoot -28.2576 6.39368
ltoes -60.658
481
root 6.54226 15.7333 -2.86183 -3.77231 -77.2601 -8.46758
lowerback 17.6931 -1.74544 9.02018
upperback -5.36199 0.158577 2.63468
thorax -16.2773 -0.678676 -2.11053
lowerneck -12.0263 -4.9903 -8.33632
upperneck 37.753 -5.22102 -4.29367
head 15.4536 -4.56426 -1.37802
rclavicle 7.15625e-015 6.20208e-014
rhumerus -22.666 -1.1872 -25.8528
rradius 73.0124
rwrist 8.88187
rhand -33.7776 -0.587111
rfingers 7.12502
rthumb -6.96485 -30.4525
lclavicle 7.15625e-015 6.20208e-014
lhumerus -39.0715 6.951 56.9119
lradius 44.6009
lwrist -18.7769
lhand -33.2527 27.7431
lfingers 7.12502
lthumb -6.45815 -302.375
rfemur 10.6847 9.07485 38.0416
rtibia 12.2957
rfoot -25.2504 -24.3855
rtoes -1.86363
lfemur -71.5246 -1.48323 -12.8518
ltibia 21.0385
lfoot -23.9705 6.62498
ltoes -61.0416
482
root 6.54541 15.7293 -2.85389 -2.96549 -77.0294 -9.32329
lowerback 17.8216 -1.69965 8.61899
upperback -5.28326 0.14884 2.74095
thorax -16.2533 -0.631981 -1.76117
lowerneck -11.9124 -5.10413 -8.43117
upperneck 37.6293 -5.42675 -4.14741
head 15.3792 -4.63646 -1.32218
rclavicle 1.59028e-015 4.29375e-014
rhumerus -21.9213 -1.21854 -25.6697
rradius 73.6821
rwrist 8.42786
rhand -34.3216 -0.927356
rfingers 7.12502
rthumb -7.49003 -30.7748
lclavicle 1.59028e-015 4.29375e-014
lhumerus -40.0439 7.08267 56.9493
lradius 44.2322
lwrist -20.0973
lhand -32.8653 27.9535
lfingers 7.12502
lthumb -6.08415 -302.154
rfemur 10.707 8.8371 38.1566
rtibia 12.2706
rfoot -25.2585 -24.3628
rtoes -2.02818
lfemur -72.1049 -0.607379 -16.2364
ltibia 22.5171
lfoot -18.0632 6.98768
ltoes -60.0609
483
root 6.54992 15.7242 -2.83991 -1.8258 -76.741 -10.5419
lowerback 17.9929 -1.69393 8.41399
upperback -5.19888 0.138679 2.86864
thorax -16.2538 -0.605069 -1.49574
lowerneck -12.5254 -5.04919 -8.14575
upperneck 38.0097 -5.27896 -4.32628
head 15.6898 -4.56467 -1.46802
rclavicle -4.77083e-015 -5.08889e-014
rhumerus -21.1739 -1.37507 -25.5162
rradius 74.333
rwrist 8.28052
rhand -34.6849 -1.21784
rfingers 7.12502
rthumb -7.84064 -31.0525
lclavicle -4.77083e-015 -5.08889e-014
lhumerus -40.9214 7.27189 56.9301
lradius 43.6686
lwrist -21.2039
lhand -31.5106 26.6769
lfingers 7.12502
lthumb -4.77616 -303.397
rfemur 10.7328 8.48072 38.2968
rtibia 12.2113
rfoot -25.1646 -24.298
rtoes -2.12737
lfemur -72.8351 0.140739 -19.3583
ltibia 24.3203
lfoot -8.86914 9.65241
ltoes -56.7564
484
root 6.55926 15.7161 -2.81897 -0.306328 -76.4669 -12.2022
lowerback 18.2536 -1.71482 8.46006
upperback -5.13633 0.166214 3.0058
thorax -16.339 -0.589344 -1.36875
lowerneck -12.5546 -5.04787 -8.0885
upperneck 37.9839 -5.30262 -4.2634
head 15.6823 -4.55279 -1.45329
rclavicle -1.78906e-014 -2.22639e-014
rhumerus -20.2652 -1.52471 -25.3891
rradius 74.6496
rwrist 8.43465
rhand -34.8258 -1.13328
rfingers 7.12502
rthumb -7.97666 -30.9628
lclavicle -1.78906e-014 -2.22639e-014
lhumerus -41.7654 7.22046 57.0568
lradius 43.1988
lwrist -21.5499
lhand -29.342 26.1882
lfingers 7.12502
lthumb -2.68197 -303.849
rfemur 10.7542 8.13171 38.5098
rtibia 12.187
rfoot -25.0986 -24.2153
rtoes -2.54519
lfemur -72.976 -0.0168143 -20.5588
ltibia 25.3157
lfoot 1.03738 15.0291
ltoes -53.3499
485
root 6.57128 15.707 -2.79658 0.744456 -76.1436 -13.4065
lowerback 18.5106 -1.73158 8.42676
upperback -5.09618 0.179411 3.12711
thorax -16.4493 -0.574069 -1.20994
lowerneck -12.3329 -5.15676 -8.28468
upperneck 37.9998 -5.45504 -4.24651
head 15.653 -4.64543 -1.43163
rclavicle -1.35174e-014 -7.15625e-015
rhumerus -19.4298 -1.5352 -25.2725
rradius 75.0441
rwrist 8.33708
rhand -34.9389 -1.23176
rfingers 7.12502
rthumb -8.0858 -31.0571
lclavicle -1.35174e-014 -7.15625e-015
lhumerus -42.5802 7.05594 57.247
lradius 42.7665
lwrist -21.423
lhand -26.4576 26.6881
lfingers 7.12502
lthumb 0.103736 -303.332
rfemur 10.8372 7.85276 38.6506
rtibia 12.1079
rfoot -25.1764 -24.1954
rtoes -2.54167
lfemur -72.9642 -0.156255 -22.3008
ltibia 26.0674
lfoot 9.91762 22.1632
ltoes -49.2948
486
root 6.57879 15.6994 -2.76881 0.847781 -75.8377 -13.5247
lowerback 18.606 -1.72362 8.23287
upperback -5.05774 0.157974 3.17806
thorax -16.4599 -0.559606 -1.03507
lowerneck -12.3391 -5.14385 -8.25596
upperneck 37.9809 -5.39246 -4.35683
head 15.6393 -4.62745 -1.47124
rclavicle -5.96354e-015 1.59028e-015
rhumerus -18.6644 -1.55164 -25.1924
rradius 75.5516
rwrist 7.89522
rhand -34.6163 -1.2071
rfingers 7.12502
rthumb -7.77444 -31.0442
lclavicle -5.96354e-015 1.59028e-015
lhumerus -43.2961 6.96775 57.3663
lradius 42.333
lwrist -21.0956
lhand -23.0169 26.9838
lfingers 7.12502
lthumb 3.42676 -303.064
rfemur 10.9148 7.61377 38.5235
rtibia 11.9216
rfoot -25.1603 -24.3032
rtoes -1.82618
lfemur -72.9492 -0.162037 -24.5857
ltibia 26.8011
lfoot 18.4841 30.226
ltoes -45.3205
487
root 6.58636 15.6946 -2.73594 0.843331 -75.5872 -13.4991
lowerback 18.7065 -1.71196 8.1095
upperback -5.0249 0.157976 3.21575
thorax -16.48 -0.544073 -0.921577
lowerneck -12.554 -5.13248 -8.18026
upperneck 38.0875 -5.30791 -4.50565
head 15.7346 -4.60165 -1.54818
rclavicle 6.75868e-015 1.11319e-014
rhumerus -17.7819 -1.55531 -25.1075
rradius 75.9527
rwrist 7.26731
rhand -34.2082 -0.896381
rfingers 7.12502
rthumb -7.38056 -30.7476
lclavicle 6.75868e-015 1.11319e-014
lhumerus -43.9299 6.88858 57.4535
lradius 41.876
lwrist -20.5656
lhand -18.9035 27.2684
lfingers 7.12502
lthumb 7.39833 -302.881
rfemur 10.9754 7.47932 38.3857
rtibia 11.7476
rfoot -25.1222 -24.4904
rtoes -1.45477
lfemur -72.6805 -0.340514 -26.2898
ltibia 27.2362
lfoot 19.4258 37.3476
ltoes -44.7665
